<?xml version="1.0" encoding="UTF-8"?><svg id="uuid-dd889b2e-509f-470f-8d8f-fca41d040d06" xmlns="http://www.w3.org/2000/svg" viewBox="0 0 2019.16 704.84"><g id="uuid-80a62e02-018c-4797-b71c-9c2c706755fe"><g id="uuid-6682e618-c11e-43d6-afe4-6dceea819c32"><path id="uuid-c022e570-1134-47b1-aa0e-4403363599d7" d="m798.93,217.85c39.05,8.57,63.35,27.62,63.35,70.01,0,50.96-34.77,80.01-89.54,80.01-28.1,0-51.44-7.62-68.11-22.39v17.15h-59.53v-80.97h63.82c8.1,16.67,25.72,24.29,47.63,24.29,17.15,0,23.81-5.72,23.81-12.86,0-5.72-3.33-11.91-18.1-15.24l-47.63-10.48c-47.15-10-69.06-32.39-69.06-70.97,0-52.39,40.96-79.54,91.45-79.54,20.48,0,44.77,4.76,62.87,19.05v-13.81h58.58v76.68h-69.06c-5.24-12.38-18.1-21.91-37.63-21.91-12.86,0-21.43,4.76-21.43,14.29s7.14,12.86,18.57,15.24l50.01,11.43Z" fill="#fff" stroke-width="0"/></g><g id="uuid-6449555f-4c27-4460-bc3f-82bb7501729f"><path id="uuid-7d419073-0f2e-47f8-8722-081d37b038ab" d="m1156.14,362.64h-126.69v-50.01l-19.05-27.15-30.01,31.43v45.72h-97.16v-59.06h22.86v-122.4h-22.86v-59.06h97.64v99.54l45.25-49.53v-50.01h125.26v58.58h-40.48l-47.63,50.01,49.06,72.87h43.82v59.06h0Z" fill="#fff" stroke-width="0"/></g><g id="uuid-19fb317d-8daf-4534-a8d3-10e9a9e36543"><path id="uuid-1f80e7dc-699a-4bca-a669-456c0bda6a1c" d="m1271.88,303.58h25.24v59.06h-125.26v-59.06h25.24v-122.4h-25.24v-59.06h125.26v58.58h-25.24v122.88Z" fill="#fff" stroke-width="0"/></g><g id="uuid-c147ee94-15b7-4b09-8edf-f5c19788bdd4"><path id="uuid-78510c05-2ca4-49cb-a401-cb728d02eef0" d="m1532.88,362.64h-209.56v-59.06h22.86v-122.4h-22.86v-59.06h128.6v58.58h-31.91v118.12h47.63v-30.96h65.25v94.78Z" fill="#fff" stroke-width="0"/></g><g id="uuid-f211cda1-78a4-4902-985e-ba8fd6ff7741"><path id="uuid-94364d97-c129-45b5-a5fa-ace1ddde5cdf" d="m1760.54,362.64h-209.56v-59.06h22.86v-122.4h-22.86v-59.06h128.6v58.58h-31.91v118.12h47.63v-30.96h65.25v94.78Z" fill="#fff" stroke-width="0"/></g><g id="uuid-984f1aed-24c8-4bad-8d74-6354a59b5296"><path id="uuid-5e931bc4-c01c-4bae-8311-4cba3b1f63d4" d="m770.83,401.69c77.63,0,130.5,46.2,130.5,119.55s-52.87,120.02-130.5,120.02h-124.79v-59.06h22.86v-121.93h-22.86v-58.58h124.79Zm0,174.32c32.39,0,55.25-22.39,55.25-55.25s-22.86-54.77-55.25-54.77h-28.1v109.54h28.1v.48Z" fill="#fff" fill-rule="evenodd" stroke-width="0"/></g><g id="uuid-697ea88a-5ed8-40fa-932c-bc6d192d01df"><path id="uuid-2d71d3c7-0455-4806-a4be-b8ab881ae8d0" d="m1064.22,641.26v-31.91l-27.15-35.72h-21.43v67.63h-96.68v-59.06h22.86v-121.93h-22.86v-58.58h130.98c66.68,0,105.26,31.91,105.26,87.64,0,30.96-14.29,55.25-39.53,70.01l20,23.81h37.15v58.11h-108.59Zm-13.81-126.21c18.57,0,30.48-10.48,30.48-26.2,0-14.76-12.38-24.77-30.48-24.77h-34.77v50.96h34.77Z" fill="#fff" fill-rule="evenodd" stroke-width="0"/></g><g id="uuid-a5e0164b-85da-4016-9733-54c1858bb7c7"><path id="uuid-82c49c56-e144-469d-a9f5-847aa695eea1" d="m1288.55,582.68h25.24v59.06h-124.79v-59.06h25.24v-122.4h-25.24v-58.58h124.79v58.58h-25.24v122.4Z" fill="#fff" stroke-width="0"/></g><g id="uuid-fa00587e-50e9-44bf-b6cb-115dd0cbe44f"><path id="uuid-6609cb45-dd3a-4e67-973b-96c6c495f009" d="m1548.59,641.26h-209.09v-59.06h22.86v-121.93h-22.86v-58.58h128.6v58.58h-31.91v117.64h47.63v-30.48h64.77v93.83h0Z" fill="#fff" stroke-width="0"/></g><g id="uuid-04abfab5-1414-4033-910f-e8e6d813cc0d"><path id="uuid-1a02a7ad-7541-4d8f-bad2-f8024f3a9111" d="m1775.78,641.26h-209.09v-59.06h22.86v-121.93h-22.86v-58.58h128.6v58.58h-31.91v117.64h47.63v-30.48h64.77v93.83h0Z" fill="#fff" stroke-width="0"/><path id="uuid-7921f120-e4c1-48db-842b-9c40ca250939" d="m1955.81,496.95c39.05,8.57,63.35,27.62,63.35,70.01,0,50.96-34.77,80.01-89.54,80.01-27.62,0-50.96-7.62-68.11-22.39v17.15h-59.06v-80.97h63.35c8.1,16.67,25.72,24.29,47.63,24.29,17.15,0,23.81-5.72,23.81-12.86,0-5.72-3.33-11.91-18.1-15.24l-47.63-10c-47.15-10-68.58-32.39-68.58-70.97,0-52.39,40.96-79.54,91.45-79.54,20.48,0,44.29,4.76,62.87,19.05v-13.81h58.58v76.68h-68.58c-5.24-12.38-18.1-21.91-37.15-21.91-12.86,0-21.43,4.76-21.43,14.29s7.14,12.86,18.1,15.24l49.06,10.95Z" fill="#fff" stroke-width="0"/></g><g id="uuid-d7a2b8f4-ddef-4c71-9d63-5f555176b12e"><path id="uuid-5f7c332f-4075-4d6f-aaea-9c36044d5e7d" d="m299.79,704.13C145.48,715.09,11.16,598.4.69,444.08-8.84,307.39,81.65,183.56,215.01,151.65l-1.91-23.34-1.91-23.34-19.05,1.43-19.05,1.43c-4.29.48-8.57-.95-11.91-3.81-3.33-2.86-5.24-6.67-5.72-10.95l-.95-27.62-1.91-26.67c0-4.29,1.43-8.57,3.81-11.91,2.86-3.33,6.67-5.24,10.95-5.72l80.49-6.19,80.97-6.19c4.29-.48,8.57.95,11.91,4.29,3.33,2.86,5.24,6.67,5.72,10.95,0,9.05.95,17.62,1.91,26.2.95,8.57,1.43,17.62,2.38,27.62.48,9.05-6.19,16.67-15.24,17.15l-19.05,1.43-19.05,1.43,2.38,24.77,1.91,23.34c50.01,3.81,97.64,21.43,138.6,50.01l17.15-19.05,17.15-19.05c5.72-6.67,15.72-7.62,22.39-1.91l.48.48,20.48,18.1c6.19,5.72,12.38,10.48,20.48,17.15,3.33,2.86,5.24,6.67,5.72,10.95.48,4.29-.95,8.57-3.81,11.91l-19.05,21.43-19.05,20.96h0c15.72,20.96,28.58,44.29,38.1,68.58,10,25.72,15.72,52.39,18.1,80.01,9.53,152.89-105.26,286.24-258.62,298.63Z" fill="#333" stroke-width="0"/><path id="uuid-0c11657e-c70f-4742-8fe8-5a28a44985a9" d="m472.3,151.84l12.43-14.43,65.01,55.92-12.43,14.48-65.01-55.96Z" fill="#333" stroke-width="0"/><path id="uuid-35b0ea8f-1f32-4f59-a5d8-ba1af663a5ca" d="m146.29,18.34L346.66,0l7.14,94.68-200.37,18.38-7.14-94.73Z" fill="#333" stroke-width="0"/><path id="uuid-3f9f8cf5-5f52-444d-a93d-5996f3601c06" d="m510.31,402.17c9.53,128.12-86.21,239.57-214.33,249.09-128.12,9.53-239.57-86.21-249.09-214.33s86.21-239.57,214.33-249.09c61.44-4.76,122.4,15.24,169.08,55.72,46.68,40.48,75.73,97.16,80.01,158.6Z" fill="#fff" stroke-width="0"/><path id="uuid-1c25923d-d467-4f9d-ae4b-15f9183ee62f" d="m467.32,403.34c7.81,105.05-71.19,196.65-176.68,204.46-105.05,7.81-196.65-71.19-204.46-176.68-7.81-105.05,71.19-196.65,176.68-204.46,50.36-3.47,99.84,12.59,138.05,45.58,39.07,32.99,62.95,80.31,66.42,131.1Z" fill="#02a4dd" stroke-width="0"/><path id="uuid-4bb5d901-5afe-4a2b-8e6b-f98f26b37f3a" d="m260.74,199.28l18.1,221.47,215.75-17.15-19.05-81.92-66.2-76.2-63.82-32.86-84.78-13.34Z" fill="#fff" stroke-width="0"/><path id="uuid-505bb472-05c6-4c41-b9fe-16c15ba22c15" d="m487.54,132.12l76.87,67.39-59.15,67.44-76.87-67.39,59.15-67.44Z" fill="#333" stroke-width="0"/></g></g></svg>