<?xml version="1.0" encoding="UTF-8"?><svg id="uuid-3b8480e1-8e48-496c-b3ef-c32021213579" xmlns="http://www.w3.org/2000/svg" viewBox="0 0 2019.16 704.84"><g id="uuid-49ea8921-b2e0-4ebb-a1a7-d320daaf4f8a"><g id="uuid-836fe7a5-9290-4951-b18a-80859776a9fd"><path id="uuid-7f4c036f-2dfa-4da3-90dd-ec8545b96ca8" d="m798.93,217.85c39.05,8.57,63.35,27.62,63.35,70.01,0,50.96-34.77,80.01-89.54,80.01-28.1,0-51.44-7.62-68.11-22.39v17.15h-59.53v-80.97h63.82c8.1,16.67,25.72,24.29,47.63,24.29,17.15,0,23.81-5.72,23.81-12.86,0-5.72-3.33-11.91-18.1-15.24l-47.63-10.48c-47.15-10-69.06-32.39-69.06-70.97,0-52.39,40.96-79.54,91.45-79.54,20.48,0,44.77,4.76,62.87,19.05v-13.81h58.58v76.68h-69.06c-5.24-12.38-18.1-21.91-37.63-21.91-12.86,0-21.43,4.76-21.43,14.29s7.14,12.86,18.57,15.24l50.01,11.43Z" fill="#333" stroke-width="0"/></g><g id="uuid-2cec4380-8066-4399-8583-43333a4fda1c"><path id="uuid-51d96a91-3f53-44d8-b7f1-431f6972be64" d="m1156.14,362.64h-126.69v-50.01l-19.05-27.15-30.01,31.43v45.72h-97.16v-59.06h22.86v-122.4h-22.86v-59.06h97.64v99.54l45.25-49.53v-50.01h125.26v58.58h-40.48l-47.63,50.01,49.06,72.87h43.82v59.06h0Z" fill="#333" stroke-width="0"/></g><g id="uuid-feca268d-9394-4e56-ae4d-da00daea87ad"><path id="uuid-a5a92ed2-5b06-4797-b4ed-3d140e8ce3b8" d="m1271.88,303.58h25.24v59.06h-125.26v-59.06h25.24v-122.4h-25.24v-59.06h125.26v58.58h-25.24v122.88Z" fill="#333" stroke-width="0"/></g><g id="uuid-46ed6907-3480-489d-849f-ca3d7d379b9e"><path id="uuid-f1637b1f-df67-478d-8e94-3c7183050700" d="m1532.88,362.64h-209.56v-59.06h22.86v-122.4h-22.86v-59.06h128.6v58.58h-31.91v118.12h47.63v-30.96h65.25v94.78Z" fill="#333" stroke-width="0"/></g><g id="uuid-baf69266-4acf-45de-8b1d-cde348781e82"><path id="uuid-0d98cd9a-a397-4bd9-aa28-1cad575e3883" d="m1760.54,362.64h-209.56v-59.06h22.86v-122.4h-22.86v-59.06h128.6v58.58h-31.91v118.12h47.63v-30.96h65.25v94.78Z" fill="#333" stroke-width="0"/></g><g id="uuid-8dfd140d-fac1-4959-8225-2c7cfb7b0886"><path id="uuid-395c5c93-cf49-4469-a5d0-6520c9e291cc" d="m770.83,401.69c77.63,0,130.5,46.2,130.5,119.55s-52.87,120.02-130.5,120.02h-124.79v-59.06h22.86v-121.93h-22.86v-58.58h124.79Zm0,174.32c32.39,0,55.25-22.39,55.25-55.25s-22.86-54.77-55.25-54.77h-28.1v109.54h28.1v.48Z" fill="#333" fill-rule="evenodd" stroke-width="0"/></g><g id="uuid-7efd09bf-50d5-4581-8b87-2706bb332158"><path id="uuid-326df272-d265-4c8b-98d9-e89903f06467" d="m1064.22,641.26v-31.91l-27.15-35.72h-21.43v67.63h-96.68v-59.06h22.86v-121.93h-22.86v-58.58h130.98c66.68,0,105.26,31.91,105.26,87.64,0,30.96-14.29,55.25-39.53,70.01l20,23.81h37.15v58.11h-108.59Zm-13.81-126.21c18.57,0,30.48-10.48,30.48-26.2,0-14.76-12.38-24.77-30.48-24.77h-34.77v50.96h34.77Z" fill="#333" fill-rule="evenodd" stroke-width="0"/></g><g id="uuid-a80df68b-b966-4167-8878-6e2f7bcc5155"><path id="uuid-1033a6bb-d28c-419e-adb0-bb35e9c752d8" d="m1288.55,582.68h25.24v59.06h-124.79v-59.06h25.24v-122.4h-25.24v-58.58h124.79v58.58h-25.24v122.4Z" fill="#333" stroke-width="0"/></g><g id="uuid-4604d055-05bf-4115-8a62-00079841f3dd"><path id="uuid-6008f776-5581-4739-9744-0ee7f68114fb" d="m1548.59,641.26h-209.09v-59.06h22.86v-121.93h-22.86v-58.58h128.6v58.58h-31.91v117.64h47.63v-30.48h64.77v93.83h0Z" fill="#333" stroke-width="0"/></g><g id="uuid-4c49ec1e-5c2d-40a8-b426-57696b044158"><path id="uuid-98004d7c-9071-49f5-a412-a407beba7ffa" d="m1775.78,641.26h-209.09v-59.06h22.86v-121.93h-22.86v-58.58h128.6v58.58h-31.91v117.64h47.63v-30.48h64.77v93.83h0Z" fill="#333" stroke-width="0"/><path id="uuid-a33c56b4-ba25-406e-abd8-376930a174fa" d="m1955.81,496.95c39.05,8.57,63.35,27.62,63.35,70.01,0,50.96-34.77,80.01-89.54,80.01-27.62,0-50.96-7.62-68.11-22.39v17.15h-59.06v-80.97h63.35c8.1,16.67,25.72,24.29,47.63,24.29,17.15,0,23.81-5.72,23.81-12.86,0-5.72-3.33-11.91-18.1-15.24l-47.63-10c-47.15-10-68.58-32.39-68.58-70.97,0-52.39,40.96-79.54,91.45-79.54,20.48,0,44.29,4.76,62.87,19.05v-13.81h58.58v76.68h-68.58c-5.24-12.38-18.1-21.91-37.15-21.91-12.86,0-21.43,4.76-21.43,14.29s7.14,12.86,18.1,15.24l49.06,10.95Z" fill="#333" stroke-width="0"/></g><g id="uuid-b3133cf8-84d7-46bf-b84e-b9fb219d0dd5"><path id="uuid-d6636480-07a2-454f-9ac4-987f0bf52fe9" d="m299.79,704.13C145.48,715.09,11.16,598.4.69,444.08-8.84,307.39,81.65,183.56,215.01,151.65l-1.91-23.34-1.91-23.34-19.05,1.43-19.05,1.43c-4.29.48-8.57-.95-11.91-3.81-3.33-2.86-5.24-6.67-5.72-10.95l-.95-27.62-1.91-26.67c0-4.29,1.43-8.57,3.81-11.91,2.86-3.33,6.67-5.24,10.95-5.72l80.49-6.19,80.97-6.19c4.29-.48,8.57.95,11.91,4.29,3.33,2.86,5.24,6.67,5.72,10.95,0,9.05.95,17.62,1.91,26.2.95,8.57,1.43,17.62,2.38,27.62.48,9.05-6.19,16.67-15.24,17.15l-19.05,1.43-19.05,1.43,2.38,24.77,1.91,23.34c50.01,3.81,97.64,21.43,138.6,50.01l17.15-19.05,17.15-19.05c5.72-6.67,15.72-7.62,22.39-1.91l.48.48,20.48,18.1c6.19,5.72,12.38,10.48,20.48,17.15,3.33,2.86,5.24,6.67,5.72,10.95.48,4.29-.95,8.57-3.81,11.91l-19.05,21.43-19.05,20.96h0c15.72,20.96,28.58,44.29,38.1,68.58,10,25.72,15.72,52.39,18.1,80.01,9.53,152.89-105.26,286.24-258.62,298.63Z" fill="#333" stroke-width="0"/><path id="uuid-74f667b7-86b7-4ac4-b0aa-9541b26026f1" d="m472.3,151.84l12.43-14.43,65.01,55.92-12.43,14.48-65.01-55.96Z" fill="#333" stroke-width="0"/><path id="uuid-a73a473b-6fa4-4dfa-b59a-57e44a37cab1" d="m146.29,18.34L346.66,0l7.14,94.68-200.37,18.38-7.14-94.73Z" fill="#333" stroke-width="0"/><path id="uuid-b91afa89-8148-46a6-a925-bbeec90459aa" d="m510.31,402.17c9.53,128.12-86.21,239.57-214.33,249.09-128.12,9.53-239.57-86.21-249.09-214.33s86.21-239.57,214.33-249.09c61.44-4.76,122.4,15.24,169.08,55.72,46.68,40.48,75.73,97.16,80.01,158.6Z" fill="#fff" stroke-width="0"/><path id="uuid-0dfb12ce-c290-43e2-9e43-306c1686eda9" d="m467.32,403.34c7.81,105.05-71.19,196.65-176.68,204.46-105.05,7.81-196.65-71.19-204.46-176.68-7.81-105.05,71.19-196.65,176.68-204.46,50.36-3.47,99.84,12.59,138.05,45.58,39.07,32.99,62.95,80.31,66.42,131.1Z" fill="#02a4dd" stroke-width="0"/><path id="uuid-d0e2ed1a-7f49-45f9-9ef6-484653a010cc" d="m260.74,199.28l18.1,221.47,215.75-17.15-19.05-81.92-66.2-76.2-63.82-32.86-84.78-13.34Z" fill="#fff" stroke-width="0"/><path id="uuid-b18bf35d-4b15-4a80-b4ce-522c9cff46e1" d="m487.54,132.12l76.87,67.39-59.15,67.44-76.87-67.39,59.15-67.44Z" fill="#333" stroke-width="0"/></g></g></svg>