<?xml version="1.0" encoding="UTF-8"?><svg id="uuid-7e871e8e-2504-4207-a60b-90dde10d2062" xmlns="http://www.w3.org/2000/svg" viewBox="0 0 705 705"><rect width="705" height="705" fill="#02a4dd" stroke-width="0"/><g id="uuid-08bf485c-cc35-4e9e-910a-bb3fa7c42c0d"><g id="uuid-942b2058-22b9-478d-8f23-b8b08612ccf9"><path id="uuid-bbf4d79e-2e99-433b-b980-1c176f29140d" d="m367.21,646.81c-129.13,9.17-241.53-88.48-250.29-217.61-7.97-114.38,67.75-218,179.34-244.71l-1.6-19.53-1.6-19.53-15.94,1.2-15.94,1.2c-3.59.4-7.17-.79-9.97-3.19-2.79-2.39-4.38-5.58-4.79-9.16l-.79-23.11-1.6-22.32c0-3.59,1.2-7.17,3.19-9.97,2.39-2.79,5.58-4.38,9.16-4.79l67.35-5.18,67.76-5.18c3.59-.4,7.17.79,9.97,3.59,2.79,2.39,4.38,5.58,4.79,9.16,0,7.57.79,14.74,1.6,21.92.79,7.17,1.2,14.74,1.99,23.11.4,7.57-5.18,13.95-12.75,14.35l-15.94,1.2-15.94,1.2,1.99,20.73,1.6,19.53c41.85,3.19,81.71,17.93,115.98,41.85l14.35-15.94,14.35-15.94c4.79-5.58,13.15-6.38,18.74-1.6l.4.4,17.14,15.15c5.18,4.79,10.36,8.77,17.14,14.35,2.79,2.39,4.38,5.58,4.79,9.16.4,3.59-.79,7.17-3.19,9.97l-15.94,17.93-15.94,17.54h0c13.15,17.54,23.92,37.06,31.88,57.39,8.37,21.52,13.15,43.84,15.15,66.95,7.97,127.94-88.08,239.53-216.41,249.89l-.02-.02Z" fill="#333" stroke-width="0"/><path id="uuid-01417ad8-0fe9-4476-8619-72f94c991f91" d="m511.57,184.65l10.4-12.08,54.4,46.79-10.4,12.12-54.4-46.83h0Z" fill="#333" stroke-width="0"/><path id="uuid-823b3a3a-6ec8-4a87-b448-9761c529d23c" d="m238.76,72.94l167.67-15.35,5.97,79.23-167.67,15.38-5.97-79.27h0Z" fill="#333" stroke-width="0"/><path id="uuid-285aaea5-311e-4bbd-9ec5-2e9d2f959c32" d="m543.38,394.13c7.97,107.21-72.14,200.47-179.35,208.44-107.21,7.97-200.47-72.14-208.44-179.35-7.97-107.21,72.14-200.47,179.35-208.44,51.41-3.98,102.42,12.75,141.49,46.63,39.06,33.87,63.37,81.3,66.95,132.72h0Z" fill="#fff" stroke-width="0"/><path id="uuid-394fe4f2-7222-4749-985d-3244e402e89c" d="m507.4,395.11c6.54,87.91-59.57,164.56-147.85,171.09-87.91,6.54-164.56-59.57-171.09-147.85-6.54-87.91,59.57-164.56,147.85-171.09,42.14-2.9,83.55,10.54,115.52,38.14,32.69,27.61,52.68,67.2,55.58,109.7h0Z" fill="#02a4dd" stroke-width="0"/><path id="uuid-83def144-f456-4453-a991-f3c38caecfac" d="m334.54,224.35l15.15,185.33,180.54-14.35-15.94-68.55-55.4-63.76-53.4-27.5-70.94-11.16h0Z" fill="#fff" stroke-width="0"/><path id="uuid-aa0dbaa5-49c3-4fa5-bec7-fee8a82c216f" d="m524.32,168.15l64.33,56.39-49.5,56.43-64.32-56.39,49.5-56.43h0Z" fill="#333" stroke-width="0"/></g></g></svg>